<svg xmlns="http://www.w3.org/2000/svg" viewBox="0 0 800 450" fill="none">
  <rect width="800" height="450" rx="8" fill="#0f172a"/>
  <!-- Sidebar -->
  <rect x="0" y="0" width="180" height="450" rx="8" fill="#1e293b"/>
  <rect x="20" y="20" width="140" height="24" rx="4" fill="#0d9488" opacity="0.8"/>
  <rect x="20" y="60" width="120" height="16" rx="3" fill="#334155"/>
  <rect x="20" y="88" width="100" height="16" rx="3" fill="#334155"/>
  <rect x="20" y="116" width="130" height="16" rx="3" fill="#334155"/>
  <rect x="20" y="144" width="90" height="16" rx="3" fill="#334155"/>
  <rect x="20" y="172" width="110" height="16" rx="3" fill="#334155"/>
  <!-- Main content -->
  <rect x="200" y="20" width="280" height="32" rx="4" fill="#334155"/>
  <!-- Cards -->
  <rect x="200" y="72" width="180" height="100" rx="6" fill="#1e293b"/>
  <rect x="400" y="72" width="180" height="100" rx="6" fill="#1e293b"/>
  <rect x="600" y="72" width="180" height="100" rx="6" fill="#1e293b"/>
  <!-- Card content -->
  <rect x="216" y="88" width="60" height="12" rx="2" fill="#0d9488" opacity="0.6"/>
  <rect x="216" y="108" width="148" height="40" rx="2" fill="#334155" opacity="0.5"/>
  <rect x="416" y="88" width="60" height="12" rx="2" fill="#0d9488" opacity="0.6"/>
  <rect x="416" y="108" width="148" height="40" rx="2" fill="#334155" opacity="0.5"/>
  <rect x="616" y="88" width="60" height="12" rx="2" fill="#0d9488" opacity="0.6"/>
  <rect x="616" y="108" width="148" height="40" rx="2" fill="#334155" opacity="0.5"/>
  <!-- Table -->
  <rect x="200" y="192" width="580" height="240" rx="6" fill="#1e293b"/>
  <rect x="216" y="208" width="548" height="24" rx="3" fill="#334155"/>
  <rect x="216" y="244" width="548" height="1" fill="#334155"/>
  <rect x="216" y="256" width="548" height="20" rx="2" fill="#0f172a" opacity="0.5"/>
  <rect x="216" y="288" width="548" height="20" rx="2" fill="#0f172a" opacity="0.3"/>
  <rect x="216" y="320" width="548" height="20" rx="2" fill="#0f172a" opacity="0.5"/>
  <rect x="216" y="352" width="548" height="20" rx="2" fill="#0f172a" opacity="0.3"/>
  <rect x="216" y="384" width="548" height="20" rx="2" fill="#0f172a" opacity="0.5"/>
  <!-- CRM label -->
  <text x="400" y="235" font-family="system-ui" font-size="14" fill="#94a3b8" text-anchor="middle">BEMER CRM Dashboard</text>
</svg>
