<svg xmlns="http://www.w3.org/2000/svg" viewBox="0 0 800 450" fill="none">
  <rect width="800" height="450" rx="8" fill="#0f172a"/>
  <!-- Top nav -->
  <rect x="0" y="0" width="800" height="52" fill="#1e293b"/>
  <rect x="20" y="16" width="100" height="20" rx="4" fill="#0d9488" opacity="0.9"/>
  <rect x="660" y="14" width="120" height="24" rx="12" fill="#0d9488" opacity="0.7"/>
  <!-- KPI cards -->
  <rect x="20" y="72" width="174" height="90" rx="6" fill="#1e293b"/>
  <rect x="210" y="72" width="174" height="90" rx="6" fill="#1e293b"/>
  <rect x="400" y="72" width="174" height="90" rx="6" fill="#1e293b"/>
  <rect x="590" y="72" width="190" height="90" rx="6" fill="#1e293b"/>
  <!-- KPI labels -->
  <rect x="36" y="88" width="80" height="10" rx="2" fill="#64748b"/>
  <rect x="36" y="108" width="60" height="22" rx="3" fill="#0d9488" opacity="0.8"/>
  <rect x="36" y="138" width="50" height="8" rx="2" fill="#10b981" opacity="0.7"/>
  <rect x="226" y="88" width="80" height="10" rx="2" fill="#64748b"/>
  <rect x="226" y="108" width="60" height="22" rx="3" fill="#0d9488" opacity="0.8"/>
  <rect x="226" y="138" width="50" height="8" rx="2" fill="#10b981" opacity="0.7"/>
  <rect x="416" y="88" width="80" height="10" rx="2" fill="#64748b"/>
  <rect x="416" y="108" width="60" height="22" rx="3" fill="#0d9488" opacity="0.8"/>
  <rect x="416" y="138" width="50" height="8" rx="2" fill="#f59e0b" opacity="0.7"/>
  <rect x="606" y="88" width="80" height="10" rx="2" fill="#64748b"/>
  <rect x="606" y="108" width="60" height="22" rx="3" fill="#0d9488" opacity="0.8"/>
  <rect x="606" y="138" width="50" height="8" rx="2" fill="#10b981" opacity="0.7"/>
  <!-- Chart area -->
  <rect x="20" y="178" width="470" height="250" rx="6" fill="#1e293b"/>
  <rect x="36" y="194" width="120" height="14" rx="3" fill="#334155"/>
  <!-- Bar chart bars -->
  <rect x="60" y="330" width="30" height="70" rx="3" fill="#0d9488" opacity="0.5"/>
  <rect x="110" y="300" width="30" height="100" rx="3" fill="#0d9488" opacity="0.6"/>
  <rect x="160" y="270" width="30" height="130" rx="3" fill="#0d9488" opacity="0.7"/>
  <rect x="210" y="290" width="30" height="110" rx="3" fill="#0d9488" opacity="0.65"/>
  <rect x="260" y="250" width="30" height="150" rx="3" fill="#0d9488" opacity="0.8"/>
  <rect x="310" y="220" width="30" height="180" rx="3" fill="#0d9488" opacity="0.9"/>
  <rect x="360" y="240" width="30" height="160" rx="3" fill="#0d9488" opacity="0.85"/>
  <rect x="410" y="200" width="30" height="200" rx="3" fill="#0d9488"/>
  <!-- Pipeline table -->
  <rect x="506" y="178" width="274" height="250" rx="6" fill="#1e293b"/>
  <rect x="522" y="194" width="100" height="14" rx="3" fill="#334155"/>
  <rect x="522" y="222" width="242" height="24" rx="3" fill="#334155" opacity="0.8"/>
  <rect x="522" y="258" width="242" height="1" fill="#334155"/>
  <rect x="522" y="270" width="242" height="18" rx="2" fill="#0f172a" opacity="0.5"/>
  <rect x="522" y="300" width="242" height="18" rx="2" fill="#0f172a" opacity="0.3"/>
  <rect x="522" y="330" width="242" height="18" rx="2" fill="#0f172a" opacity="0.5"/>
  <rect x="522" y="360" width="242" height="18" rx="2" fill="#0f172a" opacity="0.3"/>
  <rect x="522" y="390" width="242" height="18" rx="2" fill="#0f172a" opacity="0.5"/>
  <!-- Label -->
  <text x="400" y="438" font-family="system-ui" font-size="13" fill="#94a3b8" text-anchor="middle">CZ Dev Sales Dashboard</text>
</svg>
