<svg xmlns="http://www.w3.org/2000/svg" viewBox="0 0 800 450" fill="none">
  <rect width="800" height="450" rx="8" fill="#0f172a"/>
  <!-- Header -->
  <rect x="20" y="20" width="760" height="40" rx="6" fill="#1e293b"/>
  <rect x="36" y="30" width="180" height="20" rx="3" fill="#0d9488" opacity="0.8"/>
  <!-- Score cards -->
  <rect x="20" y="80" width="240" height="120" rx="6" fill="#1e293b"/>
  <rect x="280" y="80" width="240" height="120" rx="6" fill="#1e293b"/>
  <rect x="540" y="80" width="240" height="120" rx="6" fill="#1e293b"/>
  <!-- Score values -->
  <text x="140" y="140" font-family="system-ui" font-size="36" font-weight="bold" fill="#ef4444" text-anchor="middle">9.8</text>
  <text x="140" y="170" font-family="system-ui" font-size="12" fill="#94a3b8" text-anchor="middle">CVSS Score</text>
  <text x="400" y="140" font-family="system-ui" font-size="36" font-weight="bold" fill="#f59e0b" text-anchor="middle">0.72</text>
  <text x="400" y="170" font-family="system-ui" font-size="12" fill="#94a3b8" text-anchor="middle">EPSS Score</text>
  <text x="660" y="140" font-family="system-ui" font-size="36" font-weight="bold" fill="#0d9488" text-anchor="middle">87</text>
  <text x="660" y="170" font-family="system-ui" font-size="12" fill="#94a3b8" text-anchor="middle">Priority Score</text>
  <!-- Chart area -->
  <rect x="20" y="220" width="480" height="210" rx="6" fill="#1e293b"/>
  <!-- Bar chart -->
  <rect x="60" y="320" width="40" height="90" rx="2" fill="#ef4444" opacity="0.8"/>
  <rect x="120" y="280" width="40" height="130" rx="2" fill="#ef4444" opacity="0.6"/>
  <rect x="180" y="300" width="40" height="110" rx="2" fill="#f59e0b" opacity="0.8"/>
  <rect x="240" y="340" width="40" height="70" rx="2" fill="#f59e0b" opacity="0.6"/>
  <rect x="300" y="360" width="40" height="50" rx="2" fill="#0d9488" opacity="0.8"/>
  <rect x="360" y="380" width="40" height="30" rx="2" fill="#0d9488" opacity="0.6"/>
  <rect x="420" y="390" width="40" height="20" rx="2" fill="#22c55e" opacity="0.8"/>
  <!-- Side panel -->
  <rect x="520" y="220" width="260" height="210" rx="6" fill="#1e293b"/>
  <rect x="536" y="240" width="180" height="14" rx="2" fill="#334155"/>
  <rect x="536" y="266" width="228" height="12" rx="2" fill="#334155" opacity="0.5"/>
  <rect x="536" y="290" width="228" height="12" rx="2" fill="#334155" opacity="0.5"/>
  <rect x="536" y="314" width="200" height="12" rx="2" fill="#334155" opacity="0.5"/>
  <rect x="536" y="346" width="120" height="28" rx="4" fill="#0d9488" opacity="0.6"/>
</svg>
